<?xml version="1.0" standalone="no"?>
<!DOCTYPE svg PUBLIC "-//W3C//DTD SVG 20010904//EN"
 "http://www.w3.org/TR/2001/REC-SVG-20010904/DTD/svg10.dtd">
<svg version="1.0" xmlns="http://www.w3.org/2000/svg"
 width="644.000000pt" height="424.000000pt" viewBox="0 0 644.000000 424.000000"
 preserveAspectRatio="xMidYMid meet">
<metadata>
Created by potrace 1.16, written by Peter Selinger 2001-2019
</metadata>
<g transform="translate(0.000000,424.000000) scale(0.100000,-0.100000)"
fill="#000000" stroke="none">
<path d="M0 2120 l0 -2120 3220 0 3220 0 0 2120 0 2120 -3220 0 -3220 0 0
-2120z m3390 250 l0 -60 -125 0 -125 0 0 -55 0 -55 80 0 80 0 0 -60 c0 -59 0
-60 -27 -59 -16 1 -52 1 -80 0 l-53 -1 0 -50 0 -50 125 0 125 0 0 -60 0 -60
-180 2 -181 3 -3 277 c-2 152 -1 279 2 282 3 4 86 6 184 6 l178 0 0 -60z
m1388 -2 l3 -58 -126 0 -125 0 0 -55 0 -55 81 0 80 0 -3 -57 -3 -58 -77 -3
-78 -3 0 -49 0 -49 123 -3 122 -3 0 -55 0 -55 -182 -3 -183 -2 0 285 0 285
183 -2 182 -3 3 -57z m338 36 c15 -11 37 -32 48 -47 26 -35 33 -130 14 -177
-12 -29 -13 -40 -2 -65 19 -45 17 -134 -4 -175 -12 -22 -35 -44 -62 -57 -39
-20 -59 -23 -167 -23 l-123 0 0 286 0 286 134 -4 c117 -3 138 -6 162 -24z
m-2386 -68 l0 -83 58 -39 c31 -21 60 -40 65 -42 4 -2 7 53 7 122 l0 126 60 0
60 0 0 -280 0 -280 -60 0 -60 0 0 83 -1 82 -62 43 -62 43 -3 -126 -3 -125 -54
0 c-30 0 -55 3 -55 8 0 19 -1 519 0 535 0 14 9 17 55 17 l55 0 0 -84z m1068
43 c5 -72 -2 -79 -69 -79 l-59 0 0 -220 0 -220 -55 0 -55 0 0 220 0 219 -62 3
-63 3 -3 58 -3 57 184 0 183 0 2 -41z m154 -176 l3 -217 25 -6 c14 -4 33 -3
43 2 15 8 17 29 17 224 l0 215 58 -3 57 -3 5 -215 5 -215 35 0 35 0 3 218 2
217 60 0 60 0 0 -223 c0 -257 -5 -276 -80 -314 -51 -27 -96 -29 -145 -9 -31
13 -39 13 -72 -1 -48 -19 -125 -13 -161 14 -61 46 -67 69 -71 296 -1 114 0
214 3 222 4 11 21 15 60 15 l56 0 2 -217z"/>
<path d="M3040 2140 l0 -271 148 5 c81 2 157 5 170 5 19 1 22 6 22 41 l0 40
-125 0 c-69 0 -125 3 -125 8 -1 4 -2 35 -3 70 l-2 62 83 0 82 0 0 45 0 45 -83
0 -84 0 1 59 c1 33 5 63 9 67 9 9 27 11 155 13 l92 1 0 40 0 40 -170 0 -170 0
0 -270z"/>
<path d="M4420 2145 c0 -246 1 -265 18 -265 9 0 86 -2 170 -3 l152 -2 0 43 0
42 -125 0 -125 0 0 70 0 70 80 0 80 0 0 45 0 45 -80 0 -80 0 0 70 0 70 125 0
125 0 0 40 0 40 -170 0 -170 0 0 -265z"/>
<path d="M4840 2145 l0 -265 121 0 c133 0 162 9 193 60 20 35 21 144 2 180
-12 21 -12 29 0 52 20 40 20 142 0 173 -35 53 -70 65 -198 65 l-118 0 0 -265z
m228 169 c24 -17 30 -70 12 -105 -9 -16 -22 -19 -85 -19 l-75 0 0 63 c0 35 3
67 7 70 13 14 118 7 141 -9z m6 -230 c22 -22 21 -87 -3 -108 -14 -13 -33 -16
-82 -14 l-64 3 -3 68 -3 67 70 0 c50 0 74 -4 85 -16z"/>
<path d="M2630 2140 l0 -271 42 3 43 3 0 128 c0 70 4 127 8 127 4 1 41 -22 82
-51 l75 -51 0 -79 0 -79 40 0 40 0 0 270 0 270 -40 0 -40 0 0 -135 c0 -74 -3
-135 -6 -135 -12 0 -154 104 -155 114 0 6 -1 41 -1 79 0 37 -1 67 -2 68 0 0
-20 2 -43 5 l-43 6 0 -272z"/>
<path d="M3454 2401 c-2 -2 -4 -22 -4 -43 l0 -38 60 0 60 0 0 -219 0 -219 26
-5 c14 -2 35 -2 45 0 18 5 19 18 19 224 l0 219 61 0 60 0 -3 40 -3 40 -158 3
c-87 1 -161 0 -163 -2z"/>
<path d="M3854 2401 c-2 -2 -4 -96 -4 -208 0 -216 6 -249 49 -287 29 -26 128
-34 169 -14 25 13 33 13 53 2 34 -19 125 -17 159 2 56 34 60 52 60 288 l0 216
-40 0 -40 0 0 -204 c0 -225 -3 -236 -60 -236 -57 0 -60 11 -60 235 0 222 1
217 -57 207 -23 -4 -23 -5 -23 -201 0 -222 -5 -241 -64 -241 -17 0 -37 5 -44
12 -9 9 -12 71 -12 219 l0 207 -41 4 c-22 2 -42 2 -45 -1z"/>
</g>
</svg>
